<?xml version="1.0" encoding="utf-8"?>
<!-- Generator: Adobe Illustrator 20.0.0, SVG Export Plug-In . SVG Version: 6.00 Build 0)  -->
<svg version="1.1" id="Layer_1" xmlns="http://www.w3.org/2000/svg" xmlns:xlink="http://www.w3.org/1999/xlink" x="0px" y="0px"
	 viewBox="0 0 35.2 35.2" style="enable-background:new 0 0 35.2 35.2;" xml:space="preserve">
<style type="text/css">
	.st0{fill:#24CA39;}
</style>
<g>
	<path class="st0" d="M17.6,0C7.8,0,0,7.8,0,17.6s7.8,17.6,17.6,17.6s17.6-7.8,17.6-17.6S27.4,0,17.6,0L17.6,0z M27.8,12.1L15,25.4
		c-0.2,0.2-0.3,0.2-0.6,0.2c-0.2,0-0.5-0.1-0.6-0.2l-6.2-6.7l-0.2-0.2c-0.2-0.2-0.2-0.4-0.2-0.6s0.1-0.4,0.2-0.6l1.1-1.1
		c0.3-0.3,0.8-0.3,1.1,0l0.1,0.1l4.4,4.7c0.2,0.2,0.4,0.2,0.6,0L25.4,9.9h0.1c0.3-0.3,0.8-0.3,1.1,0l1.1,1.1
		C28.1,11.3,28.1,11.8,27.8,12.1L27.8,12.1z"/>
</g>
</svg>
